<mxfile host="app.diagrams.net" modified="2023-09-08T16:43:21.595Z" agent="Mozilla/5.0 (Windows NT 10.0; Win64; x64) AppleWebKit/537.36 (KHTML, like Gecko) Chrome/116.0.0.0 Safari/537.36" etag="WeMGz2Y81NMzvE9kvaYH" version="21.7.4" type="github">
  <diagram name="Page-1" id="GqKCmJBMcg34R5TixOiP">
    <mxGraphModel dx="1434" dy="1900" grid="1" gridSize="10" guides="1" tooltips="1" connect="1" arrows="1" fold="1" page="1" pageScale="1" pageWidth="850" pageHeight="1100" math="0" shadow="0">
      <root>
        <mxCell id="0" />
        <mxCell id="1" parent="0" />
        <mxCell id="ZPJvlLc-Iu8yikDsORwH-1" value="" style="rounded=0;whiteSpace=wrap;html=1;" vertex="1" parent="1">
          <mxGeometry x="250" y="-1030" width="70" height="30" as="geometry" />
        </mxCell>
        <mxCell id="ZPJvlLc-Iu8yikDsORwH-2" value="" style="rounded=0;whiteSpace=wrap;html=1;" vertex="1" parent="1">
          <mxGeometry x="250" y="-990" width="70" height="30" as="geometry" />
        </mxCell>
        <mxCell id="ZPJvlLc-Iu8yikDsORwH-3" value="" style="rounded=0;whiteSpace=wrap;html=1;" vertex="1" parent="1">
          <mxGeometry x="250" y="-950" width="70" height="30" as="geometry" />
        </mxCell>
        <mxCell id="ZPJvlLc-Iu8yikDsORwH-4" value="" style="rounded=0;whiteSpace=wrap;html=1;" vertex="1" parent="1">
          <mxGeometry x="340" y="-1030" width="70" height="30" as="geometry" />
        </mxCell>
        <mxCell id="ZPJvlLc-Iu8yikDsORwH-5" value="" style="rounded=0;whiteSpace=wrap;html=1;" vertex="1" parent="1">
          <mxGeometry x="340" y="-990" width="70" height="30" as="geometry" />
        </mxCell>
        <mxCell id="ZPJvlLc-Iu8yikDsORwH-6" value="" style="rounded=0;whiteSpace=wrap;html=1;" vertex="1" parent="1">
          <mxGeometry x="340" y="-950" width="70" height="30" as="geometry" />
        </mxCell>
        <mxCell id="ZPJvlLc-Iu8yikDsORwH-10" value="" style="rounded=0;whiteSpace=wrap;html=1;" vertex="1" parent="1">
          <mxGeometry x="425" y="-1030" width="70" height="30" as="geometry" />
        </mxCell>
        <mxCell id="ZPJvlLc-Iu8yikDsORwH-11" value="" style="rounded=0;whiteSpace=wrap;html=1;" vertex="1" parent="1">
          <mxGeometry x="425" y="-990" width="70" height="30" as="geometry" />
        </mxCell>
        <mxCell id="ZPJvlLc-Iu8yikDsORwH-12" value="" style="rounded=0;whiteSpace=wrap;html=1;" vertex="1" parent="1">
          <mxGeometry x="425" y="-950" width="70" height="30" as="geometry" />
        </mxCell>
        <mxCell id="ZPJvlLc-Iu8yikDsORwH-13" value="" style="rounded=0;whiteSpace=wrap;html=1;" vertex="1" parent="1">
          <mxGeometry x="510" y="-1030" width="70" height="30" as="geometry" />
        </mxCell>
        <mxCell id="ZPJvlLc-Iu8yikDsORwH-14" value="" style="rounded=0;whiteSpace=wrap;html=1;" vertex="1" parent="1">
          <mxGeometry x="510" y="-990" width="70" height="30" as="geometry" />
        </mxCell>
        <mxCell id="ZPJvlLc-Iu8yikDsORwH-15" value="" style="rounded=0;whiteSpace=wrap;html=1;" vertex="1" parent="1">
          <mxGeometry x="510" y="-950" width="70" height="30" as="geometry" />
        </mxCell>
        <mxCell id="ZPJvlLc-Iu8yikDsORwH-16" value="" style="rounded=0;whiteSpace=wrap;html=1;" vertex="1" parent="1">
          <mxGeometry x="440" y="-700" width="70" height="30" as="geometry" />
        </mxCell>
        <mxCell id="ZPJvlLc-Iu8yikDsORwH-17" value="" style="rounded=0;whiteSpace=wrap;html=1;" vertex="1" parent="1">
          <mxGeometry x="440" y="-660" width="70" height="30" as="geometry" />
        </mxCell>
      </root>
    </mxGraphModel>
  </diagram>
</mxfile>
